<?xml version="1.0" encoding="utf-8" standalone="no"?>
<!DOCTYPE svg PUBLIC "-//W3C//DTD SVG 1.1//EN"
  "http://www.w3.org/Graphics/SVG/1.1/DTD/svg11.dtd">
<svg xmlns:xlink="http://www.w3.org/1999/xlink" width="720pt" height="360pt" viewBox="0 0 720 360" xmlns="http://www.w3.org/2000/svg" version="1.1">
 <metadata>
  <rdf:RDF xmlns:dc="http://purl.org/dc/elements/1.1/" xmlns:cc="http://creativecommons.org/ns#" xmlns:rdf="http://www.w3.org/1999/02/22-rdf-syntax-ns#">
   <cc:Work>
    <dc:type rdf:resource="http://purl.org/dc/dcmitype/StillImage"/>
    <dc:date>2024-02-07T09:37:40.218066</dc:date>
    <dc:format>image/svg+xml</dc:format>
    <dc:creator>
     <cc:Agent>
      <dc:title>Matplotlib v3.7.1, https://matplotlib.org/</dc:title>
     </cc:Agent>
    </dc:creator>
   </cc:Work>
  </rdf:RDF>
 </metadata>
 <defs>
  <style type="text/css">*{stroke-linejoin: round; stroke-linecap: butt}</style>
 </defs>
 <g id="figure_1">
  <g id="patch_1">
   <path d="M 0 360 
L 720 360 
L 720 0 
L 0 0 
z
" style="fill: #ffffff"/>
  </g>
  <g id="axes_1">
   <g id="patch_2">
    <path d="M 90 320.4 
L 343.636364 320.4 
L 343.636364 43.2 
L 90 43.2 
z
" style="fill: #ffffff"/>
   </g>
   <g id="matplotlib.axis_1">
    <g id="xtick_1">
     <g id="line2d_1">
      <defs>
       <path id="mcb11a2117c" d="M 0 0 
L 0 3.5 
" style="stroke: #000000; stroke-width: 0.8"/>
      </defs>
      <g>
       <use xlink:href="#mcb11a2117c" x="96.823242" y="320.4" style="stroke: #000000; stroke-width: 0.8"/>
      </g>
     </g>
     <g id="text_1">
      <!-- 0 -->
      <g transform="translate(93.641992 334.998438) scale(0.1 -0.1)">
       <defs>
        <path id="DejaVuSans-30" d="M 2034 4250 
Q 1547 4250 1301 3770 
Q 1056 3291 1056 2328 
Q 1056 1369 1301 889 
Q 1547 409 2034 409 
Q 2525 409 2770 889 
Q 3016 1369 3016 2328 
Q 3016 3291 2770 3770 
Q 2525 4250 2034 4250 
z
M 2034 4750 
Q 2819 4750 3233 4129 
Q 3647 3509 3647 2328 
Q 3647 1150 3233 529 
Q 2819 -91 2034 -91 
Q 1250 -91 836 529 
Q 422 1150 422 2328 
Q 422 3509 836 4129 
Q 1250 4750 2034 4750 
z
" transform="scale(0.015625)"/>
       </defs>
       <use xlink:href="#DejaVuSans-30"/>
      </g>
     </g>
    </g>
    <g id="xtick_2">
     <g id="line2d_2">
      <g>
       <use xlink:href="#mcb11a2117c" x="143.880081" y="320.4" style="stroke: #000000; stroke-width: 0.8"/>
      </g>
     </g>
     <g id="text_2">
      <!-- 10 -->
      <g transform="translate(137.517581 334.998438) scale(0.1 -0.1)">
       <defs>
        <path id="DejaVuSans-31" d="M 794 531 
L 1825 531 
L 1825 4091 
L 703 3866 
L 703 4441 
L 1819 4666 
L 2450 4666 
L 2450 531 
L 3481 531 
L 3481 0 
L 794 0 
L 794 531 
z
" transform="scale(0.015625)"/>
       </defs>
       <use xlink:href="#DejaVuSans-31"/>
       <use xlink:href="#DejaVuSans-30" x="63.623047"/>
      </g>
     </g>
    </g>
    <g id="xtick_3">
     <g id="line2d_3">
      <g>
       <use xlink:href="#mcb11a2117c" x="190.93692" y="320.4" style="stroke: #000000; stroke-width: 0.8"/>
      </g>
     </g>
     <g id="text_3">
      <!-- 20 -->
      <g transform="translate(184.57442 334.998438) scale(0.1 -0.1)">
       <defs>
        <path id="DejaVuSans-32" d="M 1228 531 
L 3431 531 
L 3431 0 
L 469 0 
L 469 531 
Q 828 903 1448 1529 
Q 2069 2156 2228 2338 
Q 2531 2678 2651 2914 
Q 2772 3150 2772 3378 
Q 2772 3750 2511 3984 
Q 2250 4219 1831 4219 
Q 1534 4219 1204 4116 
Q 875 4013 500 3803 
L 500 4441 
Q 881 4594 1212 4672 
Q 1544 4750 1819 4750 
Q 2544 4750 2975 4387 
Q 3406 4025 3406 3419 
Q 3406 3131 3298 2873 
Q 3191 2616 2906 2266 
Q 2828 2175 2409 1742 
Q 1991 1309 1228 531 
z
" transform="scale(0.015625)"/>
       </defs>
       <use xlink:href="#DejaVuSans-32"/>
       <use xlink:href="#DejaVuSans-30" x="63.623047"/>
      </g>
     </g>
    </g>
    <g id="xtick_4">
     <g id="line2d_4">
      <g>
       <use xlink:href="#mcb11a2117c" x="237.993759" y="320.4" style="stroke: #000000; stroke-width: 0.8"/>
      </g>
     </g>
     <g id="text_4">
      <!-- 30 -->
      <g transform="translate(231.631259 334.998438) scale(0.1 -0.1)">
       <defs>
        <path id="DejaVuSans-33" d="M 2597 2516 
Q 3050 2419 3304 2112 
Q 3559 1806 3559 1356 
Q 3559 666 3084 287 
Q 2609 -91 1734 -91 
Q 1441 -91 1130 -33 
Q 819 25 488 141 
L 488 750 
Q 750 597 1062 519 
Q 1375 441 1716 441 
Q 2309 441 2620 675 
Q 2931 909 2931 1356 
Q 2931 1769 2642 2001 
Q 2353 2234 1838 2234 
L 1294 2234 
L 1294 2753 
L 1863 2753 
Q 2328 2753 2575 2939 
Q 2822 3125 2822 3475 
Q 2822 3834 2567 4026 
Q 2313 4219 1838 4219 
Q 1578 4219 1281 4162 
Q 984 4106 628 3988 
L 628 4550 
Q 988 4650 1302 4700 
Q 1616 4750 1894 4750 
Q 2613 4750 3031 4423 
Q 3450 4097 3450 3541 
Q 3450 3153 3228 2886 
Q 3006 2619 2597 2516 
z
" transform="scale(0.015625)"/>
       </defs>
       <use xlink:href="#DejaVuSans-33"/>
       <use xlink:href="#DejaVuSans-30" x="63.623047"/>
      </g>
     </g>
    </g>
    <g id="xtick_5">
     <g id="line2d_5">
      <g>
       <use xlink:href="#mcb11a2117c" x="285.050599" y="320.4" style="stroke: #000000; stroke-width: 0.8"/>
      </g>
     </g>
     <g id="text_5">
      <!-- 40 -->
      <g transform="translate(278.688099 334.998438) scale(0.1 -0.1)">
       <defs>
        <path id="DejaVuSans-34" d="M 2419 4116 
L 825 1625 
L 2419 1625 
L 2419 4116 
z
M 2253 4666 
L 3047 4666 
L 3047 1625 
L 3713 1625 
L 3713 1100 
L 3047 1100 
L 3047 0 
L 2419 0 
L 2419 1100 
L 313 1100 
L 313 1709 
L 2253 4666 
z
" transform="scale(0.015625)"/>
       </defs>
       <use xlink:href="#DejaVuSans-34"/>
       <use xlink:href="#DejaVuSans-30" x="63.623047"/>
      </g>
     </g>
    </g>
    <g id="xtick_6">
     <g id="line2d_6">
      <g>
       <use xlink:href="#mcb11a2117c" x="332.107438" y="320.4" style="stroke: #000000; stroke-width: 0.8"/>
      </g>
     </g>
     <g id="text_6">
      <!-- 50 -->
      <g transform="translate(325.744938 334.998438) scale(0.1 -0.1)">
       <defs>
        <path id="DejaVuSans-35" d="M 691 4666 
L 3169 4666 
L 3169 4134 
L 1269 4134 
L 1269 2991 
Q 1406 3038 1543 3061 
Q 1681 3084 1819 3084 
Q 2600 3084 3056 2656 
Q 3513 2228 3513 1497 
Q 3513 744 3044 326 
Q 2575 -91 1722 -91 
Q 1428 -91 1123 -41 
Q 819 9 494 109 
L 494 744 
Q 775 591 1075 516 
Q 1375 441 1709 441 
Q 2250 441 2565 725 
Q 2881 1009 2881 1497 
Q 2881 1984 2565 2268 
Q 2250 2553 1709 2553 
Q 1456 2553 1204 2497 
Q 953 2441 691 2322 
L 691 4666 
z
" transform="scale(0.015625)"/>
       </defs>
       <use xlink:href="#DejaVuSans-35"/>
       <use xlink:href="#DejaVuSans-30" x="63.623047"/>
      </g>
     </g>
    </g>
    <g id="text_7">
     <!-- evidence of positive class -->
     <g transform="translate(152.536932 348.676562) scale(0.1 -0.1)">
      <defs>
       <path id="DejaVuSans-65" d="M 3597 1894 
L 3597 1613 
L 953 1613 
Q 991 1019 1311 708 
Q 1631 397 2203 397 
Q 2534 397 2845 478 
Q 3156 559 3463 722 
L 3463 178 
Q 3153 47 2828 -22 
Q 2503 -91 2169 -91 
Q 1331 -91 842 396 
Q 353 884 353 1716 
Q 353 2575 817 3079 
Q 1281 3584 2069 3584 
Q 2775 3584 3186 3129 
Q 3597 2675 3597 1894 
z
M 3022 2063 
Q 3016 2534 2758 2815 
Q 2500 3097 2075 3097 
Q 1594 3097 1305 2825 
Q 1016 2553 972 2059 
L 3022 2063 
z
" transform="scale(0.015625)"/>
       <path id="DejaVuSans-76" d="M 191 3500 
L 800 3500 
L 1894 563 
L 2988 3500 
L 3597 3500 
L 2284 0 
L 1503 0 
L 191 3500 
z
" transform="scale(0.015625)"/>
       <path id="DejaVuSans-69" d="M 603 3500 
L 1178 3500 
L 1178 0 
L 603 0 
L 603 3500 
z
M 603 4863 
L 1178 4863 
L 1178 4134 
L 603 4134 
L 603 4863 
z
" transform="scale(0.015625)"/>
       <path id="DejaVuSans-64" d="M 2906 2969 
L 2906 4863 
L 3481 4863 
L 3481 0 
L 2906 0 
L 2906 525 
Q 2725 213 2448 61 
Q 2172 -91 1784 -91 
Q 1150 -91 751 415 
Q 353 922 353 1747 
Q 353 2572 751 3078 
Q 1150 3584 1784 3584 
Q 2172 3584 2448 3432 
Q 2725 3281 2906 2969 
z
M 947 1747 
Q 947 1113 1208 752 
Q 1469 391 1925 391 
Q 2381 391 2643 752 
Q 2906 1113 2906 1747 
Q 2906 2381 2643 2742 
Q 2381 3103 1925 3103 
Q 1469 3103 1208 2742 
Q 947 2381 947 1747 
z
" transform="scale(0.015625)"/>
       <path id="DejaVuSans-6e" d="M 3513 2113 
L 3513 0 
L 2938 0 
L 2938 2094 
Q 2938 2591 2744 2837 
Q 2550 3084 2163 3084 
Q 1697 3084 1428 2787 
Q 1159 2491 1159 1978 
L 1159 0 
L 581 0 
L 581 3500 
L 1159 3500 
L 1159 2956 
Q 1366 3272 1645 3428 
Q 1925 3584 2291 3584 
Q 2894 3584 3203 3211 
Q 3513 2838 3513 2113 
z
" transform="scale(0.015625)"/>
       <path id="DejaVuSans-63" d="M 3122 3366 
L 3122 2828 
Q 2878 2963 2633 3030 
Q 2388 3097 2138 3097 
Q 1578 3097 1268 2742 
Q 959 2388 959 1747 
Q 959 1106 1268 751 
Q 1578 397 2138 397 
Q 2388 397 2633 464 
Q 2878 531 3122 666 
L 3122 134 
Q 2881 22 2623 -34 
Q 2366 -91 2075 -91 
Q 1284 -91 818 406 
Q 353 903 353 1747 
Q 353 2603 823 3093 
Q 1294 3584 2113 3584 
Q 2378 3584 2631 3529 
Q 2884 3475 3122 3366 
z
" transform="scale(0.015625)"/>
       <path id="DejaVuSans-20" transform="scale(0.015625)"/>
       <path id="DejaVuSans-6f" d="M 1959 3097 
Q 1497 3097 1228 2736 
Q 959 2375 959 1747 
Q 959 1119 1226 758 
Q 1494 397 1959 397 
Q 2419 397 2687 759 
Q 2956 1122 2956 1747 
Q 2956 2369 2687 2733 
Q 2419 3097 1959 3097 
z
M 1959 3584 
Q 2709 3584 3137 3096 
Q 3566 2609 3566 1747 
Q 3566 888 3137 398 
Q 2709 -91 1959 -91 
Q 1206 -91 779 398 
Q 353 888 353 1747 
Q 353 2609 779 3096 
Q 1206 3584 1959 3584 
z
" transform="scale(0.015625)"/>
       <path id="DejaVuSans-66" d="M 2375 4863 
L 2375 4384 
L 1825 4384 
Q 1516 4384 1395 4259 
Q 1275 4134 1275 3809 
L 1275 3500 
L 2222 3500 
L 2222 3053 
L 1275 3053 
L 1275 0 
L 697 0 
L 697 3053 
L 147 3053 
L 147 3500 
L 697 3500 
L 697 3744 
Q 697 4328 969 4595 
Q 1241 4863 1831 4863 
L 2375 4863 
z
" transform="scale(0.015625)"/>
       <path id="DejaVuSans-70" d="M 1159 525 
L 1159 -1331 
L 581 -1331 
L 581 3500 
L 1159 3500 
L 1159 2969 
Q 1341 3281 1617 3432 
Q 1894 3584 2278 3584 
Q 2916 3584 3314 3078 
Q 3713 2572 3713 1747 
Q 3713 922 3314 415 
Q 2916 -91 2278 -91 
Q 1894 -91 1617 61 
Q 1341 213 1159 525 
z
M 3116 1747 
Q 3116 2381 2855 2742 
Q 2594 3103 2138 3103 
Q 1681 3103 1420 2742 
Q 1159 2381 1159 1747 
Q 1159 1113 1420 752 
Q 1681 391 2138 391 
Q 2594 391 2855 752 
Q 3116 1113 3116 1747 
z
" transform="scale(0.015625)"/>
       <path id="DejaVuSans-73" d="M 2834 3397 
L 2834 2853 
Q 2591 2978 2328 3040 
Q 2066 3103 1784 3103 
Q 1356 3103 1142 2972 
Q 928 2841 928 2578 
Q 928 2378 1081 2264 
Q 1234 2150 1697 2047 
L 1894 2003 
Q 2506 1872 2764 1633 
Q 3022 1394 3022 966 
Q 3022 478 2636 193 
Q 2250 -91 1575 -91 
Q 1294 -91 989 -36 
Q 684 19 347 128 
L 347 722 
Q 666 556 975 473 
Q 1284 391 1588 391 
Q 1994 391 2212 530 
Q 2431 669 2431 922 
Q 2431 1156 2273 1281 
Q 2116 1406 1581 1522 
L 1381 1569 
Q 847 1681 609 1914 
Q 372 2147 372 2553 
Q 372 3047 722 3315 
Q 1072 3584 1716 3584 
Q 2034 3584 2315 3537 
Q 2597 3491 2834 3397 
z
" transform="scale(0.015625)"/>
       <path id="DejaVuSans-74" d="M 1172 4494 
L 1172 3500 
L 2356 3500 
L 2356 3053 
L 1172 3053 
L 1172 1153 
Q 1172 725 1289 603 
Q 1406 481 1766 481 
L 2356 481 
L 2356 0 
L 1766 0 
Q 1100 0 847 248 
Q 594 497 594 1153 
L 594 3053 
L 172 3053 
L 172 3500 
L 594 3500 
L 594 4494 
L 1172 4494 
z
" transform="scale(0.015625)"/>
       <path id="DejaVuSans-6c" d="M 603 4863 
L 1178 4863 
L 1178 0 
L 603 0 
L 603 4863 
z
" transform="scale(0.015625)"/>
       <path id="DejaVuSans-61" d="M 2194 1759 
Q 1497 1759 1228 1600 
Q 959 1441 959 1056 
Q 959 750 1161 570 
Q 1363 391 1709 391 
Q 2188 391 2477 730 
Q 2766 1069 2766 1631 
L 2766 1759 
L 2194 1759 
z
M 3341 1997 
L 3341 0 
L 2766 0 
L 2766 531 
Q 2569 213 2275 61 
Q 1981 -91 1556 -91 
Q 1019 -91 701 211 
Q 384 513 384 1019 
Q 384 1609 779 1909 
Q 1175 2209 1959 2209 
L 2766 2209 
L 2766 2266 
Q 2766 2663 2505 2880 
Q 2244 3097 1772 3097 
Q 1472 3097 1187 3025 
Q 903 2953 641 2809 
L 641 3341 
Q 956 3463 1253 3523 
Q 1550 3584 1831 3584 
Q 2591 3584 2966 3190 
Q 3341 2797 3341 1997 
z
" transform="scale(0.015625)"/>
      </defs>
      <use xlink:href="#DejaVuSans-65"/>
      <use xlink:href="#DejaVuSans-76" x="61.523438"/>
      <use xlink:href="#DejaVuSans-69" x="120.703125"/>
      <use xlink:href="#DejaVuSans-64" x="148.486328"/>
      <use xlink:href="#DejaVuSans-65" x="211.962891"/>
      <use xlink:href="#DejaVuSans-6e" x="273.486328"/>
      <use xlink:href="#DejaVuSans-63" x="336.865234"/>
      <use xlink:href="#DejaVuSans-65" x="391.845703"/>
      <use xlink:href="#DejaVuSans-20" x="453.369141"/>
      <use xlink:href="#DejaVuSans-6f" x="485.15625"/>
      <use xlink:href="#DejaVuSans-66" x="546.337891"/>
      <use xlink:href="#DejaVuSans-20" x="581.542969"/>
      <use xlink:href="#DejaVuSans-70" x="613.330078"/>
      <use xlink:href="#DejaVuSans-6f" x="676.806641"/>
      <use xlink:href="#DejaVuSans-73" x="737.988281"/>
      <use xlink:href="#DejaVuSans-69" x="790.087891"/>
      <use xlink:href="#DejaVuSans-74" x="817.871094"/>
      <use xlink:href="#DejaVuSans-69" x="857.080078"/>
      <use xlink:href="#DejaVuSans-76" x="884.863281"/>
      <use xlink:href="#DejaVuSans-65" x="944.042969"/>
      <use xlink:href="#DejaVuSans-20" x="1005.566406"/>
      <use xlink:href="#DejaVuSans-63" x="1037.353516"/>
      <use xlink:href="#DejaVuSans-6c" x="1092.333984"/>
      <use xlink:href="#DejaVuSans-61" x="1120.117188"/>
      <use xlink:href="#DejaVuSans-73" x="1181.396484"/>
      <use xlink:href="#DejaVuSans-73" x="1233.496094"/>
     </g>
    </g>
   </g>
   <g id="matplotlib.axis_2">
    <g id="ytick_1">
     <g id="line2d_7">
      <defs>
       <path id="m04f96af610" d="M 0 0 
L -3.5 0 
" style="stroke: #000000; stroke-width: 0.8"/>
      </defs>
      <g>
       <use xlink:href="#m04f96af610" x="90" y="307.8" style="stroke: #000000; stroke-width: 0.8"/>
      </g>
     </g>
     <g id="text_8">
      <!-- 0.0 -->
      <g transform="translate(67.096875 311.599219) scale(0.1 -0.1)">
       <defs>
        <path id="DejaVuSans-2e" d="M 684 794 
L 1344 794 
L 1344 0 
L 684 0 
L 684 794 
z
" transform="scale(0.015625)"/>
       </defs>
       <use xlink:href="#DejaVuSans-30"/>
       <use xlink:href="#DejaVuSans-2e" x="63.623047"/>
       <use xlink:href="#DejaVuSans-30" x="95.410156"/>
      </g>
     </g>
    </g>
    <g id="ytick_2">
     <g id="line2d_8">
      <g>
       <use xlink:href="#m04f96af610" x="90" y="276.3" style="stroke: #000000; stroke-width: 0.8"/>
      </g>
     </g>
     <g id="text_9">
      <!-- 0.5 -->
      <g transform="translate(67.096875 280.099219) scale(0.1 -0.1)">
       <use xlink:href="#DejaVuSans-30"/>
       <use xlink:href="#DejaVuSans-2e" x="63.623047"/>
       <use xlink:href="#DejaVuSans-35" x="95.410156"/>
      </g>
     </g>
    </g>
    <g id="ytick_3">
     <g id="line2d_9">
      <g>
       <use xlink:href="#m04f96af610" x="90" y="244.8" style="stroke: #000000; stroke-width: 0.8"/>
      </g>
     </g>
     <g id="text_10">
      <!-- 1.0 -->
      <g transform="translate(67.096875 248.599219) scale(0.1 -0.1)">
       <use xlink:href="#DejaVuSans-31"/>
       <use xlink:href="#DejaVuSans-2e" x="63.623047"/>
       <use xlink:href="#DejaVuSans-30" x="95.410156"/>
      </g>
     </g>
    </g>
    <g id="ytick_4">
     <g id="line2d_10">
      <g>
       <use xlink:href="#m04f96af610" x="90" y="213.3" style="stroke: #000000; stroke-width: 0.8"/>
      </g>
     </g>
     <g id="text_11">
      <!-- 1.5 -->
      <g transform="translate(67.096875 217.099219) scale(0.1 -0.1)">
       <use xlink:href="#DejaVuSans-31"/>
       <use xlink:href="#DejaVuSans-2e" x="63.623047"/>
       <use xlink:href="#DejaVuSans-35" x="95.410156"/>
      </g>
     </g>
    </g>
    <g id="ytick_5">
     <g id="line2d_11">
      <g>
       <use xlink:href="#m04f96af610" x="90" y="181.8" style="stroke: #000000; stroke-width: 0.8"/>
      </g>
     </g>
     <g id="text_12">
      <!-- 2.0 -->
      <g transform="translate(67.096875 185.599219) scale(0.1 -0.1)">
       <use xlink:href="#DejaVuSans-32"/>
       <use xlink:href="#DejaVuSans-2e" x="63.623047"/>
       <use xlink:href="#DejaVuSans-30" x="95.410156"/>
      </g>
     </g>
    </g>
    <g id="ytick_6">
     <g id="line2d_12">
      <g>
       <use xlink:href="#m04f96af610" x="90" y="150.3" style="stroke: #000000; stroke-width: 0.8"/>
      </g>
     </g>
     <g id="text_13">
      <!-- 2.5 -->
      <g transform="translate(67.096875 154.099219) scale(0.1 -0.1)">
       <use xlink:href="#DejaVuSans-32"/>
       <use xlink:href="#DejaVuSans-2e" x="63.623047"/>
       <use xlink:href="#DejaVuSans-35" x="95.410156"/>
      </g>
     </g>
    </g>
    <g id="ytick_7">
     <g id="line2d_13">
      <g>
       <use xlink:href="#m04f96af610" x="90" y="118.8" style="stroke: #000000; stroke-width: 0.8"/>
      </g>
     </g>
     <g id="text_14">
      <!-- 3.0 -->
      <g transform="translate(67.096875 122.599219) scale(0.1 -0.1)">
       <use xlink:href="#DejaVuSans-33"/>
       <use xlink:href="#DejaVuSans-2e" x="63.623047"/>
       <use xlink:href="#DejaVuSans-30" x="95.410156"/>
      </g>
     </g>
    </g>
    <g id="ytick_8">
     <g id="line2d_14">
      <g>
       <use xlink:href="#m04f96af610" x="90" y="87.3" style="stroke: #000000; stroke-width: 0.8"/>
      </g>
     </g>
     <g id="text_15">
      <!-- 3.5 -->
      <g transform="translate(67.096875 91.099219) scale(0.1 -0.1)">
       <use xlink:href="#DejaVuSans-33"/>
       <use xlink:href="#DejaVuSans-2e" x="63.623047"/>
       <use xlink:href="#DejaVuSans-35" x="95.410156"/>
      </g>
     </g>
    </g>
    <g id="ytick_9">
     <g id="line2d_15">
      <g>
       <use xlink:href="#m04f96af610" x="90" y="55.8" style="stroke: #000000; stroke-width: 0.8"/>
      </g>
     </g>
     <g id="text_16">
      <!-- 4.0 -->
      <g transform="translate(67.096875 59.599219) scale(0.1 -0.1)">
       <use xlink:href="#DejaVuSans-34"/>
       <use xlink:href="#DejaVuSans-2e" x="63.623047"/>
       <use xlink:href="#DejaVuSans-30" x="95.410156"/>
      </g>
     </g>
    </g>
    <g id="text_17">
     <!-- loss -->
     <g transform="translate(61.017187 191.457812) rotate(-90) scale(0.1 -0.1)">
      <use xlink:href="#DejaVuSans-6c"/>
      <use xlink:href="#DejaVuSans-6f" x="27.783203"/>
      <use xlink:href="#DejaVuSans-73" x="88.964844"/>
      <use xlink:href="#DejaVuSans-73" x="141.064453"/>
     </g>
    </g>
   </g>
   <g id="line2d_16">
    <path d="M 101.528926 81.142402 
L 102.453088 98.408292 
L 103.37725 111.976653 
L 104.301413 123.07535 
L 105.687656 136.580659 
L 107.0739 147.491119 
L 108.460143 156.594017 
L 109.846387 164.369866 
L 111.232631 171.132348 
L 113.080955 178.935943 
L 114.92928 185.665668 
L 116.777605 191.558749 
L 118.62593 196.782657 
L 120.936335 202.555127 
L 123.246741 207.646628 
L 125.557147 212.184602 
L 127.867553 216.264487 
L 130.64004 220.657667 
L 133.412528 224.593216 
L 136.185015 228.145604 
L 138.957502 231.373026 
L 142.19207 234.788885 
L 145.426638 237.883638 
L 149.123288 241.086487 
L 152.819937 243.985549 
L 156.978668 246.938212 
L 161.137399 249.611677 
L 165.758211 252.302999 
L 170.379023 254.742638 
L 175.461916 257.177494 
L 181.00689 259.579369 
L 187.013945 261.926166 
L 193.483082 264.201228 
L 200.4143 266.392595 
L 207.807599 268.492239 
L 215.662979 270.495346 
L 224.442521 272.49963 
L 233.684145 274.384083 
L 243.849931 276.232945 
L 254.93988 278.025777 
L 267.416072 279.810183 
L 280.816426 281.499716 
L 295.603024 283.139289 
L 312.237947 284.752945 
L 330.721194 286.312782 
L 332.107438 286.421221 
L 332.107438 286.421221 
" clip-path="url(#p8e622baef1)" style="fill: none; stroke: #ff0000; stroke-width: 1.5; stroke-linecap: square"/>
   </g>
   <g id="line2d_17">
    <path d="M 101.528926 86.670636 
L 102.453088 104.475208 
L 103.37725 118.535514 
L 104.301413 130.085833 
L 105.687656 144.203809 
L 107.0739 155.660715 
L 108.460143 165.253891 
L 109.846387 173.471693 
L 111.232631 180.634069 
L 113.080955 188.914141 
L 114.92928 196.06436 
L 116.777605 202.329756 
L 118.62593 207.884143 
L 120.474254 212.855265 
L 122.78466 218.393977 
L 125.095066 223.313313 
L 127.405472 227.720006 
L 129.715878 231.69601 
L 132.488365 235.988259 
L 135.260852 239.839295 
L 138.033339 243.317034 
L 140.805827 246.475428 
L 144.040395 249.814231 
L 147.274963 252.833091 
L 150.971613 255.948558 
L 154.668262 258.758288 
L 158.364912 261.305574 
L 162.523642 263.901229 
L 167.144454 266.497432 
L 171.765266 268.834218 
L 176.848159 271.148586 
L 182.393133 273.412028 
L 188.400189 275.602607 
L 194.869325 277.704264 
L 201.800543 279.706014 
L 209.193842 281.601107 
L 217.049222 283.386234 
L 225.828765 285.148056 
L 235.53247 286.856709 
L 246.160337 288.490503 
L 257.712367 290.034912 
L 270.65064 291.531083 
L 284.975157 292.954397 
L 300.685917 294.289047 
L 318.245002 295.557192 
L 332.107438 296.423456 
L 332.107438 296.423456 
" clip-path="url(#p8e622baef1)" style="fill: none; stroke: #800080; stroke-width: 1.5; stroke-linecap: square"/>
   </g>
   <g id="line2d_18">
    <path d="M 101.528926 91.935621 
L 102.453088 110.227036 
L 103.37725 124.725808 
L 104.301413 136.672922 
L 105.687656 151.31932 
L 107.0739 163.236647 
L 108.460143 173.232877 
L 109.846387 181.804688 
L 111.232631 189.278696 
L 113.080955 197.917627 
L 114.92928 205.371376 
L 116.777605 211.89328 
L 118.62593 217.663888 
L 120.474254 222.816482 
L 122.78466 228.540122 
L 125.095066 233.604675 
L 127.405472 238.122935 
L 129.715878 242.181855 
L 132.026284 245.849873 
L 134.798771 249.811937 
L 137.571258 253.365212 
L 140.343745 256.569825 
L 143.578314 259.932064 
L 146.812882 262.947489 
L 150.04745 265.665958 
L 153.7441 268.460878 
L 157.440749 270.970008 
L 161.59948 273.500707 
L 165.758211 275.766451 
L 170.379023 278.018646 
L 174.999834 280.031844 
L 180.082727 282.010749 
L 185.627702 283.929713 
L 191.634757 285.769434 
L 198.103894 287.5163 
L 205.035112 289.161592 
L 212.890492 290.790305 
L 221.207953 292.288341 
L 230.449577 293.728163 
L 240.615363 295.088731 
L 252.167393 296.405341 
L 265.105666 297.648314 
L 279.430183 298.79902 
L 296.065105 299.903775 
L 315.010434 300.929497 
L 332.107438 301.691777 
L 332.107438 301.691777 
" clip-path="url(#p8e622baef1)" style="fill: none; stroke: #008000; stroke-width: 1.5; stroke-linecap: square"/>
   </g>
   <g id="line2d_19">
    <path d="M 101.528926 101.747638 
L 102.453088 120.876283 
L 103.37725 136.112649 
L 104.763494 154.265213 
L 106.149737 168.676687 
L 107.535981 180.548084 
L 108.922225 190.581354 
L 110.308468 199.222125 
L 111.694712 206.771202 
L 113.543036 215.497822 
L 115.391361 223.012667 
L 117.239686 229.564282 
L 119.088011 235.33295 
L 120.936335 240.45376 
L 122.78466 245.030633 
L 125.095066 250.109653 
L 127.405472 254.590121 
L 129.715878 258.568773 
L 132.026284 262.122025 
L 134.33669 265.311237 
L 137.109177 268.72747 
L 139.881664 271.760985 
L 142.654151 274.468097 
L 145.426638 276.894687 
L 148.661207 279.421217 
L 151.895775 281.666377 
L 155.592425 283.938955 
L 159.289074 285.945135 
L 163.447805 287.93267 
L 167.606535 289.678636 
L 172.227347 291.3799 
L 177.31024 293.007773 
L 182.855215 294.541706 
L 188.86227 295.96843 
L 195.331407 297.280841 
L 202.724706 298.549832 
L 211.042167 299.741547 
L 220.283791 300.834486 
L 230.911658 301.857769 
L 242.925769 302.78482 
L 256.788205 303.628015 
L 273.423127 304.40645 
L 293.292618 305.100824 
L 317.32084 305.708177 
L 332.107438 305.993343 
L 332.107438 305.993343 
" clip-path="url(#p8e622baef1)" style="fill: none; stroke: #0000ff; stroke-width: 1.5; stroke-linecap: square"/>
   </g>
   <g id="line2d_20">
    <path d="M 101.528926 126.473921 
L 102.453088 147.284596 
L 103.37725 163.904778 
L 104.301413 177.63741 
L 105.687656 194.437924 
L 107.0739 207.993212 
L 108.460143 219.209995 
L 109.846387 228.661602 
L 111.232631 236.735298 
L 112.618874 243.705917 
L 114.005118 249.776063 
L 115.853442 256.729741 
L 117.701767 262.627084 
L 119.550092 267.671235 
L 121.398417 272.016474 
L 123.246741 275.782524 
L 125.095066 279.063938 
L 126.943391 281.936481 
L 128.791716 284.461616 
L 131.102122 287.205392 
L 133.412528 289.564205 
L 135.722933 291.60173 
L 138.033339 293.369333 
L 140.805827 295.192484 
L 143.578314 296.745058 
L 146.812882 298.275838 
L 150.04745 299.559526 
L 153.7441 300.782209 
L 157.90283 301.90867 
L 162.523642 302.917673 
L 167.606535 303.800001 
L 173.613591 304.610803 
L 180.544809 305.316996 
L 188.86227 305.935055 
L 199.028056 306.460834 
L 211.966329 306.898222 
L 229.525414 307.251163 
L 254.477799 307.510531 
L 295.140943 307.683801 
L 332.107438 307.743591 
L 332.107438 307.743591 
" clip-path="url(#p8e622baef1)" style="fill: none; stroke: #000000; stroke-width: 1.5; stroke-linecap: square"/>
   </g>
   <g id="line2d_21">
    <path d="M 190.93692 307.8 
L 190.93692 55.8 
L 190.93692 55.8 
" clip-path="url(#p8e622baef1)" style="fill: none; stroke-dasharray: 5.55,2.4; stroke-dashoffset: 0; stroke: #808080; stroke-width: 1.5"/>
   </g>
   <g id="patch_3">
    <path d="M 90 320.4 
L 90 43.2 
" style="fill: none; stroke: #000000; stroke-width: 0.8; stroke-linejoin: miter; stroke-linecap: square"/>
   </g>
   <g id="patch_4">
    <path d="M 343.636364 320.4 
L 343.636364 43.2 
" style="fill: none; stroke: #000000; stroke-width: 0.8; stroke-linejoin: miter; stroke-linecap: square"/>
   </g>
   <g id="patch_5">
    <path d="M 90 320.4 
L 343.636364 320.4 
" style="fill: none; stroke: #000000; stroke-width: 0.8; stroke-linejoin: miter; stroke-linecap: square"/>
   </g>
   <g id="patch_6">
    <path d="M 90 43.2 
L 343.636364 43.2 
" style="fill: none; stroke: #000000; stroke-width: 0.8; stroke-linejoin: miter; stroke-linecap: square"/>
   </g>
   <g id="text_18">
    <!-- UFCE function for a positive sample -->
    <g transform="translate(109.675057 37.2) scale(0.12 -0.12)">
     <defs>
      <path id="DejaVuSans-55" d="M 556 4666 
L 1191 4666 
L 1191 1831 
Q 1191 1081 1462 751 
Q 1734 422 2344 422 
Q 2950 422 3222 751 
Q 3494 1081 3494 1831 
L 3494 4666 
L 4128 4666 
L 4128 1753 
Q 4128 841 3676 375 
Q 3225 -91 2344 -91 
Q 1459 -91 1007 375 
Q 556 841 556 1753 
L 556 4666 
z
" transform="scale(0.015625)"/>
      <path id="DejaVuSans-46" d="M 628 4666 
L 3309 4666 
L 3309 4134 
L 1259 4134 
L 1259 2759 
L 3109 2759 
L 3109 2228 
L 1259 2228 
L 1259 0 
L 628 0 
L 628 4666 
z
" transform="scale(0.015625)"/>
      <path id="DejaVuSans-43" d="M 4122 4306 
L 4122 3641 
Q 3803 3938 3442 4084 
Q 3081 4231 2675 4231 
Q 1875 4231 1450 3742 
Q 1025 3253 1025 2328 
Q 1025 1406 1450 917 
Q 1875 428 2675 428 
Q 3081 428 3442 575 
Q 3803 722 4122 1019 
L 4122 359 
Q 3791 134 3420 21 
Q 3050 -91 2638 -91 
Q 1578 -91 968 557 
Q 359 1206 359 2328 
Q 359 3453 968 4101 
Q 1578 4750 2638 4750 
Q 3056 4750 3426 4639 
Q 3797 4528 4122 4306 
z
" transform="scale(0.015625)"/>
      <path id="DejaVuSans-45" d="M 628 4666 
L 3578 4666 
L 3578 4134 
L 1259 4134 
L 1259 2753 
L 3481 2753 
L 3481 2222 
L 1259 2222 
L 1259 531 
L 3634 531 
L 3634 0 
L 628 0 
L 628 4666 
z
" transform="scale(0.015625)"/>
      <path id="DejaVuSans-75" d="M 544 1381 
L 544 3500 
L 1119 3500 
L 1119 1403 
Q 1119 906 1312 657 
Q 1506 409 1894 409 
Q 2359 409 2629 706 
Q 2900 1003 2900 1516 
L 2900 3500 
L 3475 3500 
L 3475 0 
L 2900 0 
L 2900 538 
Q 2691 219 2414 64 
Q 2138 -91 1772 -91 
Q 1169 -91 856 284 
Q 544 659 544 1381 
z
M 1991 3584 
L 1991 3584 
z
" transform="scale(0.015625)"/>
      <path id="DejaVuSans-72" d="M 2631 2963 
Q 2534 3019 2420 3045 
Q 2306 3072 2169 3072 
Q 1681 3072 1420 2755 
Q 1159 2438 1159 1844 
L 1159 0 
L 581 0 
L 581 3500 
L 1159 3500 
L 1159 2956 
Q 1341 3275 1631 3429 
Q 1922 3584 2338 3584 
Q 2397 3584 2469 3576 
Q 2541 3569 2628 3553 
L 2631 2963 
z
" transform="scale(0.015625)"/>
      <path id="DejaVuSans-6d" d="M 3328 2828 
Q 3544 3216 3844 3400 
Q 4144 3584 4550 3584 
Q 5097 3584 5394 3201 
Q 5691 2819 5691 2113 
L 5691 0 
L 5113 0 
L 5113 2094 
Q 5113 2597 4934 2840 
Q 4756 3084 4391 3084 
Q 3944 3084 3684 2787 
Q 3425 2491 3425 1978 
L 3425 0 
L 2847 0 
L 2847 2094 
Q 2847 2600 2669 2842 
Q 2491 3084 2119 3084 
Q 1678 3084 1418 2786 
Q 1159 2488 1159 1978 
L 1159 0 
L 581 0 
L 581 3500 
L 1159 3500 
L 1159 2956 
Q 1356 3278 1631 3431 
Q 1906 3584 2284 3584 
Q 2666 3584 2933 3390 
Q 3200 3197 3328 2828 
z
" transform="scale(0.015625)"/>
     </defs>
     <use xlink:href="#DejaVuSans-55"/>
     <use xlink:href="#DejaVuSans-46" x="73.193359"/>
     <use xlink:href="#DejaVuSans-43" x="130.712891"/>
     <use xlink:href="#DejaVuSans-45" x="200.537109"/>
     <use xlink:href="#DejaVuSans-20" x="263.720703"/>
     <use xlink:href="#DejaVuSans-66" x="295.507812"/>
     <use xlink:href="#DejaVuSans-75" x="330.712891"/>
     <use xlink:href="#DejaVuSans-6e" x="394.091797"/>
     <use xlink:href="#DejaVuSans-63" x="457.470703"/>
     <use xlink:href="#DejaVuSans-74" x="512.451172"/>
     <use xlink:href="#DejaVuSans-69" x="551.660156"/>
     <use xlink:href="#DejaVuSans-6f" x="579.443359"/>
     <use xlink:href="#DejaVuSans-6e" x="640.625"/>
     <use xlink:href="#DejaVuSans-20" x="704.003906"/>
     <use xlink:href="#DejaVuSans-66" x="735.791016"/>
     <use xlink:href="#DejaVuSans-6f" x="770.996094"/>
     <use xlink:href="#DejaVuSans-72" x="832.177734"/>
     <use xlink:href="#DejaVuSans-20" x="873.291016"/>
     <use xlink:href="#DejaVuSans-61" x="905.078125"/>
     <use xlink:href="#DejaVuSans-20" x="966.357422"/>
     <use xlink:href="#DejaVuSans-70" x="998.144531"/>
     <use xlink:href="#DejaVuSans-6f" x="1061.621094"/>
     <use xlink:href="#DejaVuSans-73" x="1122.802734"/>
     <use xlink:href="#DejaVuSans-69" x="1174.902344"/>
     <use xlink:href="#DejaVuSans-74" x="1202.685547"/>
     <use xlink:href="#DejaVuSans-69" x="1241.894531"/>
     <use xlink:href="#DejaVuSans-76" x="1269.677734"/>
     <use xlink:href="#DejaVuSans-65" x="1328.857422"/>
     <use xlink:href="#DejaVuSans-20" x="1390.380859"/>
     <use xlink:href="#DejaVuSans-73" x="1422.167969"/>
     <use xlink:href="#DejaVuSans-61" x="1474.267578"/>
     <use xlink:href="#DejaVuSans-6d" x="1535.546875"/>
     <use xlink:href="#DejaVuSans-70" x="1632.958984"/>
     <use xlink:href="#DejaVuSans-6c" x="1696.435547"/>
     <use xlink:href="#DejaVuSans-65" x="1724.21875"/>
    </g>
   </g>
   <g id="legend_1">
    <g id="patch_7">
     <path d="M 171.561364 139.26875 
L 336.636364 139.26875 
Q 338.636364 139.26875 338.636364 137.26875 
L 338.636364 50.2 
Q 338.636364 48.2 336.636364 48.2 
L 171.561364 48.2 
Q 169.561364 48.2 169.561364 50.2 
L 169.561364 137.26875 
Q 169.561364 139.26875 171.561364 139.26875 
z
" style="fill: #ffffff; opacity: 0.8; stroke: #cccccc; stroke-linejoin: miter"/>
    </g>
    <g id="line2d_22">
     <path d="M 173.561364 56.298437 
L 183.561364 56.298437 
L 193.561364 56.298437 
" style="fill: none; stroke: #ff0000; stroke-width: 1.5; stroke-linecap: square"/>
    </g>
    <g id="text_19">
     <!-- γ = 0 -->
     <g transform="translate(201.561364 59.798437) scale(0.1 -0.1)">
      <defs>
       <path id="DejaVuSans-3b3" d="M 1128 2950 
L 1894 788 
L 2988 3500 
L 3597 3500 
L 2181 0 
L 2181 -1331 
L 1606 -1331 
L 1606 0 
L 688 2613 
Q 550 3006 253 3006 
L 100 3006 
L 100 3500 
L 319 3500 
Q 934 3500 1128 2950 
z
" transform="scale(0.015625)"/>
       <path id="DejaVuSans-3d" d="M 678 2906 
L 4684 2906 
L 4684 2381 
L 678 2381 
L 678 2906 
z
M 678 1631 
L 4684 1631 
L 4684 1100 
L 678 1100 
L 678 1631 
z
" transform="scale(0.015625)"/>
      </defs>
      <use xlink:href="#DejaVuSans-3b3"/>
      <use xlink:href="#DejaVuSans-20" x="59.179688"/>
      <use xlink:href="#DejaVuSans-3d" x="90.966797"/>
      <use xlink:href="#DejaVuSans-20" x="174.755859"/>
      <use xlink:href="#DejaVuSans-30" x="206.542969"/>
     </g>
    </g>
    <g id="line2d_23">
     <path d="M 173.561364 70.976562 
L 183.561364 70.976562 
L 193.561364 70.976562 
" style="fill: none; stroke: #800080; stroke-width: 1.5; stroke-linecap: square"/>
    </g>
    <g id="text_20">
     <!-- γ = 0.5 -->
     <g transform="translate(201.561364 74.476562) scale(0.1 -0.1)">
      <use xlink:href="#DejaVuSans-3b3"/>
      <use xlink:href="#DejaVuSans-20" x="59.179688"/>
      <use xlink:href="#DejaVuSans-3d" x="90.966797"/>
      <use xlink:href="#DejaVuSans-20" x="174.755859"/>
      <use xlink:href="#DejaVuSans-30" x="206.542969"/>
      <use xlink:href="#DejaVuSans-2e" x="270.166016"/>
      <use xlink:href="#DejaVuSans-35" x="301.953125"/>
     </g>
    </g>
    <g id="line2d_24">
     <path d="M 173.561364 85.654687 
L 183.561364 85.654687 
L 193.561364 85.654687 
" style="fill: none; stroke: #008000; stroke-width: 1.5; stroke-linecap: square"/>
    </g>
    <g id="text_21">
     <!-- γ = 1 -->
     <g transform="translate(201.561364 89.154687) scale(0.1 -0.1)">
      <use xlink:href="#DejaVuSans-3b3"/>
      <use xlink:href="#DejaVuSans-20" x="59.179688"/>
      <use xlink:href="#DejaVuSans-3d" x="90.966797"/>
      <use xlink:href="#DejaVuSans-20" x="174.755859"/>
      <use xlink:href="#DejaVuSans-31" x="206.542969"/>
     </g>
    </g>
    <g id="line2d_25">
     <path d="M 173.561364 100.332812 
L 183.561364 100.332812 
L 193.561364 100.332812 
" style="fill: none; stroke: #0000ff; stroke-width: 1.5; stroke-linecap: square"/>
    </g>
    <g id="text_22">
     <!-- γ = 2 -->
     <g transform="translate(201.561364 103.832812) scale(0.1 -0.1)">
      <use xlink:href="#DejaVuSans-3b3"/>
      <use xlink:href="#DejaVuSans-20" x="59.179688"/>
      <use xlink:href="#DejaVuSans-3d" x="90.966797"/>
      <use xlink:href="#DejaVuSans-20" x="174.755859"/>
      <use xlink:href="#DejaVuSans-32" x="206.542969"/>
     </g>
    </g>
    <g id="line2d_26">
     <path d="M 173.561364 115.010937 
L 183.561364 115.010937 
L 193.561364 115.010937 
" style="fill: none; stroke: #000000; stroke-width: 1.5; stroke-linecap: square"/>
    </g>
    <g id="text_23">
     <!-- γ = 5 -->
     <g transform="translate(201.561364 118.510937) scale(0.1 -0.1)">
      <use xlink:href="#DejaVuSans-3b3"/>
      <use xlink:href="#DejaVuSans-20" x="59.179688"/>
      <use xlink:href="#DejaVuSans-3d" x="90.966797"/>
      <use xlink:href="#DejaVuSans-20" x="174.755859"/>
      <use xlink:href="#DejaVuSans-35" x="206.542969"/>
     </g>
    </g>
    <g id="line2d_27">
     <path d="M 173.561364 129.689062 
L 183.561364 129.689062 
L 193.561364 129.689062 
" style="fill: none; stroke-dasharray: 5.55,2.4; stroke-dashoffset: 0; stroke: #808080; stroke-width: 1.5"/>
    </g>
    <g id="text_24">
     <!-- evidence of negative class -->
     <g transform="translate(201.561364 133.189062) scale(0.1 -0.1)">
      <defs>
       <path id="DejaVuSans-67" d="M 2906 1791 
Q 2906 2416 2648 2759 
Q 2391 3103 1925 3103 
Q 1463 3103 1205 2759 
Q 947 2416 947 1791 
Q 947 1169 1205 825 
Q 1463 481 1925 481 
Q 2391 481 2648 825 
Q 2906 1169 2906 1791 
z
M 3481 434 
Q 3481 -459 3084 -895 
Q 2688 -1331 1869 -1331 
Q 1566 -1331 1297 -1286 
Q 1028 -1241 775 -1147 
L 775 -588 
Q 1028 -725 1275 -790 
Q 1522 -856 1778 -856 
Q 2344 -856 2625 -561 
Q 2906 -266 2906 331 
L 2906 616 
Q 2728 306 2450 153 
Q 2172 0 1784 0 
Q 1141 0 747 490 
Q 353 981 353 1791 
Q 353 2603 747 3093 
Q 1141 3584 1784 3584 
Q 2172 3584 2450 3431 
Q 2728 3278 2906 2969 
L 2906 3500 
L 3481 3500 
L 3481 434 
z
" transform="scale(0.015625)"/>
      </defs>
      <use xlink:href="#DejaVuSans-65"/>
      <use xlink:href="#DejaVuSans-76" x="61.523438"/>
      <use xlink:href="#DejaVuSans-69" x="120.703125"/>
      <use xlink:href="#DejaVuSans-64" x="148.486328"/>
      <use xlink:href="#DejaVuSans-65" x="211.962891"/>
      <use xlink:href="#DejaVuSans-6e" x="273.486328"/>
      <use xlink:href="#DejaVuSans-63" x="336.865234"/>
      <use xlink:href="#DejaVuSans-65" x="391.845703"/>
      <use xlink:href="#DejaVuSans-20" x="453.369141"/>
      <use xlink:href="#DejaVuSans-6f" x="485.15625"/>
      <use xlink:href="#DejaVuSans-66" x="546.337891"/>
      <use xlink:href="#DejaVuSans-20" x="581.542969"/>
      <use xlink:href="#DejaVuSans-6e" x="613.330078"/>
      <use xlink:href="#DejaVuSans-65" x="676.708984"/>
      <use xlink:href="#DejaVuSans-67" x="738.232422"/>
      <use xlink:href="#DejaVuSans-61" x="801.708984"/>
      <use xlink:href="#DejaVuSans-74" x="862.988281"/>
      <use xlink:href="#DejaVuSans-69" x="902.197266"/>
      <use xlink:href="#DejaVuSans-76" x="929.980469"/>
      <use xlink:href="#DejaVuSans-65" x="989.160156"/>
      <use xlink:href="#DejaVuSans-20" x="1050.683594"/>
      <use xlink:href="#DejaVuSans-63" x="1082.470703"/>
      <use xlink:href="#DejaVuSans-6c" x="1137.451172"/>
      <use xlink:href="#DejaVuSans-61" x="1165.234375"/>
      <use xlink:href="#DejaVuSans-73" x="1226.513672"/>
      <use xlink:href="#DejaVuSans-73" x="1278.613281"/>
     </g>
    </g>
   </g>
  </g>
  <g id="axes_2">
   <g id="patch_8">
    <path d="M 394.363636 320.4 
L 648 320.4 
L 648 43.2 
L 394.363636 43.2 
z
" style="fill: #ffffff"/>
   </g>
   <g id="matplotlib.axis_3">
    <g id="xtick_7">
     <g id="line2d_28">
      <g>
       <use xlink:href="#mcb11a2117c" x="401.186878" y="320.4" style="stroke: #000000; stroke-width: 0.8"/>
      </g>
     </g>
     <g id="text_25">
      <!-- 0 -->
      <g transform="translate(398.005628 334.998438) scale(0.1 -0.1)">
       <use xlink:href="#DejaVuSans-30"/>
      </g>
     </g>
    </g>
    <g id="xtick_8">
     <g id="line2d_29">
      <g>
       <use xlink:href="#mcb11a2117c" x="448.243717" y="320.4" style="stroke: #000000; stroke-width: 0.8"/>
      </g>
     </g>
     <g id="text_26">
      <!-- 10 -->
      <g transform="translate(441.881217 334.998438) scale(0.1 -0.1)">
       <use xlink:href="#DejaVuSans-31"/>
       <use xlink:href="#DejaVuSans-30" x="63.623047"/>
      </g>
     </g>
    </g>
    <g id="xtick_9">
     <g id="line2d_30">
      <g>
       <use xlink:href="#mcb11a2117c" x="495.300557" y="320.4" style="stroke: #000000; stroke-width: 0.8"/>
      </g>
     </g>
     <g id="text_27">
      <!-- 20 -->
      <g transform="translate(488.938057 334.998438) scale(0.1 -0.1)">
       <use xlink:href="#DejaVuSans-32"/>
       <use xlink:href="#DejaVuSans-30" x="63.623047"/>
      </g>
     </g>
    </g>
    <g id="xtick_10">
     <g id="line2d_31">
      <g>
       <use xlink:href="#mcb11a2117c" x="542.357396" y="320.4" style="stroke: #000000; stroke-width: 0.8"/>
      </g>
     </g>
     <g id="text_28">
      <!-- 30 -->
      <g transform="translate(535.994896 334.998438) scale(0.1 -0.1)">
       <use xlink:href="#DejaVuSans-33"/>
       <use xlink:href="#DejaVuSans-30" x="63.623047"/>
      </g>
     </g>
    </g>
    <g id="xtick_11">
     <g id="line2d_32">
      <g>
       <use xlink:href="#mcb11a2117c" x="589.414235" y="320.4" style="stroke: #000000; stroke-width: 0.8"/>
      </g>
     </g>
     <g id="text_29">
      <!-- 40 -->
      <g transform="translate(583.051735 334.998438) scale(0.1 -0.1)">
       <use xlink:href="#DejaVuSans-34"/>
       <use xlink:href="#DejaVuSans-30" x="63.623047"/>
      </g>
     </g>
    </g>
    <g id="xtick_12">
     <g id="line2d_33">
      <g>
       <use xlink:href="#mcb11a2117c" x="636.471074" y="320.4" style="stroke: #000000; stroke-width: 0.8"/>
      </g>
     </g>
     <g id="text_30">
      <!-- 50 -->
      <g transform="translate(630.108574 334.998438) scale(0.1 -0.1)">
       <use xlink:href="#DejaVuSans-35"/>
       <use xlink:href="#DejaVuSans-30" x="63.623047"/>
      </g>
     </g>
    </g>
    <g id="text_31">
     <!-- evidence of negative class -->
     <g transform="translate(454.644318 348.676562) scale(0.1 -0.1)">
      <use xlink:href="#DejaVuSans-65"/>
      <use xlink:href="#DejaVuSans-76" x="61.523438"/>
      <use xlink:href="#DejaVuSans-69" x="120.703125"/>
      <use xlink:href="#DejaVuSans-64" x="148.486328"/>
      <use xlink:href="#DejaVuSans-65" x="211.962891"/>
      <use xlink:href="#DejaVuSans-6e" x="273.486328"/>
      <use xlink:href="#DejaVuSans-63" x="336.865234"/>
      <use xlink:href="#DejaVuSans-65" x="391.845703"/>
      <use xlink:href="#DejaVuSans-20" x="453.369141"/>
      <use xlink:href="#DejaVuSans-6f" x="485.15625"/>
      <use xlink:href="#DejaVuSans-66" x="546.337891"/>
      <use xlink:href="#DejaVuSans-20" x="581.542969"/>
      <use xlink:href="#DejaVuSans-6e" x="613.330078"/>
      <use xlink:href="#DejaVuSans-65" x="676.708984"/>
      <use xlink:href="#DejaVuSans-67" x="738.232422"/>
      <use xlink:href="#DejaVuSans-61" x="801.708984"/>
      <use xlink:href="#DejaVuSans-74" x="862.988281"/>
      <use xlink:href="#DejaVuSans-69" x="902.197266"/>
      <use xlink:href="#DejaVuSans-76" x="929.980469"/>
      <use xlink:href="#DejaVuSans-65" x="989.160156"/>
      <use xlink:href="#DejaVuSans-20" x="1050.683594"/>
      <use xlink:href="#DejaVuSans-63" x="1082.470703"/>
      <use xlink:href="#DejaVuSans-6c" x="1137.451172"/>
      <use xlink:href="#DejaVuSans-61" x="1165.234375"/>
      <use xlink:href="#DejaVuSans-73" x="1226.513672"/>
      <use xlink:href="#DejaVuSans-73" x="1278.613281"/>
     </g>
    </g>
   </g>
   <g id="matplotlib.axis_4">
    <g id="ytick_10">
     <g id="line2d_34">
      <g>
       <use xlink:href="#m04f96af610" x="394.363636" y="307.8" style="stroke: #000000; stroke-width: 0.8"/>
      </g>
     </g>
     <g id="text_32">
      <!-- 0.0 -->
      <g transform="translate(371.460511 311.599219) scale(0.1 -0.1)">
       <use xlink:href="#DejaVuSans-30"/>
       <use xlink:href="#DejaVuSans-2e" x="63.623047"/>
       <use xlink:href="#DejaVuSans-30" x="95.410156"/>
      </g>
     </g>
    </g>
    <g id="ytick_11">
     <g id="line2d_35">
      <g>
       <use xlink:href="#m04f96af610" x="394.363636" y="276.3" style="stroke: #000000; stroke-width: 0.8"/>
      </g>
     </g>
     <g id="text_33">
      <!-- 0.5 -->
      <g transform="translate(371.460511 280.099219) scale(0.1 -0.1)">
       <use xlink:href="#DejaVuSans-30"/>
       <use xlink:href="#DejaVuSans-2e" x="63.623047"/>
       <use xlink:href="#DejaVuSans-35" x="95.410156"/>
      </g>
     </g>
    </g>
    <g id="ytick_12">
     <g id="line2d_36">
      <g>
       <use xlink:href="#m04f96af610" x="394.363636" y="244.8" style="stroke: #000000; stroke-width: 0.8"/>
      </g>
     </g>
     <g id="text_34">
      <!-- 1.0 -->
      <g transform="translate(371.460511 248.599219) scale(0.1 -0.1)">
       <use xlink:href="#DejaVuSans-31"/>
       <use xlink:href="#DejaVuSans-2e" x="63.623047"/>
       <use xlink:href="#DejaVuSans-30" x="95.410156"/>
      </g>
     </g>
    </g>
    <g id="ytick_13">
     <g id="line2d_37">
      <g>
       <use xlink:href="#m04f96af610" x="394.363636" y="213.3" style="stroke: #000000; stroke-width: 0.8"/>
      </g>
     </g>
     <g id="text_35">
      <!-- 1.5 -->
      <g transform="translate(371.460511 217.099219) scale(0.1 -0.1)">
       <use xlink:href="#DejaVuSans-31"/>
       <use xlink:href="#DejaVuSans-2e" x="63.623047"/>
       <use xlink:href="#DejaVuSans-35" x="95.410156"/>
      </g>
     </g>
    </g>
    <g id="ytick_14">
     <g id="line2d_38">
      <g>
       <use xlink:href="#m04f96af610" x="394.363636" y="181.8" style="stroke: #000000; stroke-width: 0.8"/>
      </g>
     </g>
     <g id="text_36">
      <!-- 2.0 -->
      <g transform="translate(371.460511 185.599219) scale(0.1 -0.1)">
       <use xlink:href="#DejaVuSans-32"/>
       <use xlink:href="#DejaVuSans-2e" x="63.623047"/>
       <use xlink:href="#DejaVuSans-30" x="95.410156"/>
      </g>
     </g>
    </g>
    <g id="ytick_15">
     <g id="line2d_39">
      <g>
       <use xlink:href="#m04f96af610" x="394.363636" y="150.3" style="stroke: #000000; stroke-width: 0.8"/>
      </g>
     </g>
     <g id="text_37">
      <!-- 2.5 -->
      <g transform="translate(371.460511 154.099219) scale(0.1 -0.1)">
       <use xlink:href="#DejaVuSans-32"/>
       <use xlink:href="#DejaVuSans-2e" x="63.623047"/>
       <use xlink:href="#DejaVuSans-35" x="95.410156"/>
      </g>
     </g>
    </g>
    <g id="ytick_16">
     <g id="line2d_40">
      <g>
       <use xlink:href="#m04f96af610" x="394.363636" y="118.8" style="stroke: #000000; stroke-width: 0.8"/>
      </g>
     </g>
     <g id="text_38">
      <!-- 3.0 -->
      <g transform="translate(371.460511 122.599219) scale(0.1 -0.1)">
       <use xlink:href="#DejaVuSans-33"/>
       <use xlink:href="#DejaVuSans-2e" x="63.623047"/>
       <use xlink:href="#DejaVuSans-30" x="95.410156"/>
      </g>
     </g>
    </g>
    <g id="ytick_17">
     <g id="line2d_41">
      <g>
       <use xlink:href="#m04f96af610" x="394.363636" y="87.3" style="stroke: #000000; stroke-width: 0.8"/>
      </g>
     </g>
     <g id="text_39">
      <!-- 3.5 -->
      <g transform="translate(371.460511 91.099219) scale(0.1 -0.1)">
       <use xlink:href="#DejaVuSans-33"/>
       <use xlink:href="#DejaVuSans-2e" x="63.623047"/>
       <use xlink:href="#DejaVuSans-35" x="95.410156"/>
      </g>
     </g>
    </g>
    <g id="ytick_18">
     <g id="line2d_42">
      <g>
       <use xlink:href="#m04f96af610" x="394.363636" y="55.8" style="stroke: #000000; stroke-width: 0.8"/>
      </g>
     </g>
     <g id="text_40">
      <!-- 4.0 -->
      <g transform="translate(371.460511 59.599219) scale(0.1 -0.1)">
       <use xlink:href="#DejaVuSans-34"/>
       <use xlink:href="#DejaVuSans-2e" x="63.623047"/>
       <use xlink:href="#DejaVuSans-30" x="95.410156"/>
      </g>
     </g>
    </g>
    <g id="text_41">
     <!-- loss -->
     <g transform="translate(365.380824 191.457812) rotate(-90) scale(0.1 -0.1)">
      <use xlink:href="#DejaVuSans-6c"/>
      <use xlink:href="#DejaVuSans-6f" x="27.783203"/>
      <use xlink:href="#DejaVuSans-73" x="88.964844"/>
      <use xlink:href="#DejaVuSans-73" x="141.064453"/>
     </g>
    </g>
   </g>
   <g id="line2d_43">
    <path d="M 405.892562 304.65 
L 412.361699 300.56155 
L 419.292916 296.456806 
L 426.686215 292.35447 
L 434.079514 288.502979 
L 441.934895 284.653367 
L 450.252356 280.818441 
L 459.031899 277.00873 
L 468.273522 273.232785 
L 478.439308 269.324993 
L 489.067176 265.483238 
L 500.157124 261.709532 
L 512.171235 257.861329 
L 524.647427 254.099304 
L 538.047782 250.294143 
L 552.372298 246.465672 
L 567.158896 242.74353 
L 582.869657 239.015802 
L 599.504579 235.295344 
L 617.525746 231.498303 
L 636.471074 227.738883 
L 636.471074 227.738883 
" clip-path="url(#p05c25b4430)" style="fill: none; stroke: #ff0000; stroke-width: 1.5; stroke-linecap: square"/>
   </g>
   <g id="line2d_44">
    <path d="M 405.892562 307.187183 
L 409.589211 306.317172 
L 414.210023 304.998193 
L 420.67916 302.898 
L 429.920784 299.630042 
L 452.562762 291.279992 
L 469.659766 285.125087 
L 484.446364 280.036493 
L 498.770881 275.339498 
L 513.095397 270.872204 
L 527.881995 266.492713 
L 543.130675 262.208723 
L 558.841435 258.024233 
L 575.476358 253.827236 
L 592.573362 249.742939 
L 610.594528 245.667174 
L 629.539857 241.612924 
L 636.471074 240.184318 
L 636.471074 240.184318 
" clip-path="url(#p05c25b4430)" style="fill: none; stroke: #800080; stroke-width: 1.5; stroke-linecap: square"/>
   </g>
   <g id="line2d_45">
    <path d="M 405.892562 307.65 
L 410.513374 307.250263 
L 415.596267 306.580134 
L 421.603322 305.544247 
L 428.53454 304.100542 
L 436.38992 302.231975 
L 446.555706 299.568869 
L 460.418142 295.682089 
L 527.419914 276.573801 
L 546.827324 271.42556 
L 565.772653 266.626932 
L 585.180063 261.942267 
L 605.049554 257.379298 
L 625.381126 252.941186 
L 636.471074 250.613488 
L 636.471074 250.613488 
" clip-path="url(#p05c25b4430)" style="fill: none; stroke: #008000; stroke-width: 1.5; stroke-linecap: square"/>
   </g>
   <g id="line2d_46">
    <path d="M 405.892562 307.786364 
L 415.134186 307.60972 
L 423.451647 307.216898 
L 431.769108 306.588213 
L 440.08657 305.738627 
L 449.328194 304.566976 
L 459.49398 303.046476 
L 471.046009 301.084579 
L 484.446364 298.575856 
L 501.081287 295.225336 
L 524.647427 290.229907 
L 600.890823 273.916122 
L 629.539857 268.094627 
L 636.471074 266.722364 
L 636.471074 266.722364 
" clip-path="url(#p05c25b4430)" style="fill: none; stroke: #0000ff; stroke-width: 1.5; stroke-linecap: square"/>
   </g>
   <g id="line2d_47">
    <path d="M 405.892562 307.799941 
L 441.472813 307.691457 
L 459.49398 307.410384 
L 475.666821 306.940334 
L 491.377582 306.26315 
L 507.550423 305.338261 
L 524.185346 304.159948 
L 541.744431 302.691829 
L 560.68976 300.884939 
L 581.945494 298.630311 
L 606.435797 295.799437 
L 635.546912 292.199668 
L 636.471074 292.082215 
L 636.471074 292.082215 
" clip-path="url(#p05c25b4430)" style="fill: none; stroke: #000000; stroke-width: 1.5; stroke-linecap: square"/>
   </g>
   <g id="line2d_48">
    <path d="M 495.300557 307.8 
L 495.300557 55.8 
L 495.300557 55.8 
" clip-path="url(#p05c25b4430)" style="fill: none; stroke-dasharray: 5.55,2.4; stroke-dashoffset: 0; stroke: #808080; stroke-width: 1.5"/>
   </g>
   <g id="patch_9">
    <path d="M 394.363636 320.4 
L 394.363636 43.2 
" style="fill: none; stroke: #000000; stroke-width: 0.8; stroke-linejoin: miter; stroke-linecap: square"/>
   </g>
   <g id="patch_10">
    <path d="M 648 320.4 
L 648 43.2 
" style="fill: none; stroke: #000000; stroke-width: 0.8; stroke-linejoin: miter; stroke-linecap: square"/>
   </g>
   <g id="patch_11">
    <path d="M 394.363636 320.4 
L 648 320.4 
" style="fill: none; stroke: #000000; stroke-width: 0.8; stroke-linejoin: miter; stroke-linecap: square"/>
   </g>
   <g id="patch_12">
    <path d="M 394.363636 43.2 
L 648 43.2 
" style="fill: none; stroke: #000000; stroke-width: 0.8; stroke-linejoin: miter; stroke-linecap: square"/>
   </g>
   <g id="text_42">
    <!-- UFCE function for a positive sample -->
    <g transform="translate(414.038693 37.2) scale(0.12 -0.12)">
     <use xlink:href="#DejaVuSans-55"/>
     <use xlink:href="#DejaVuSans-46" x="73.193359"/>
     <use xlink:href="#DejaVuSans-43" x="130.712891"/>
     <use xlink:href="#DejaVuSans-45" x="200.537109"/>
     <use xlink:href="#DejaVuSans-20" x="263.720703"/>
     <use xlink:href="#DejaVuSans-66" x="295.507812"/>
     <use xlink:href="#DejaVuSans-75" x="330.712891"/>
     <use xlink:href="#DejaVuSans-6e" x="394.091797"/>
     <use xlink:href="#DejaVuSans-63" x="457.470703"/>
     <use xlink:href="#DejaVuSans-74" x="512.451172"/>
     <use xlink:href="#DejaVuSans-69" x="551.660156"/>
     <use xlink:href="#DejaVuSans-6f" x="579.443359"/>
     <use xlink:href="#DejaVuSans-6e" x="640.625"/>
     <use xlink:href="#DejaVuSans-20" x="704.003906"/>
     <use xlink:href="#DejaVuSans-66" x="735.791016"/>
     <use xlink:href="#DejaVuSans-6f" x="770.996094"/>
     <use xlink:href="#DejaVuSans-72" x="832.177734"/>
     <use xlink:href="#DejaVuSans-20" x="873.291016"/>
     <use xlink:href="#DejaVuSans-61" x="905.078125"/>
     <use xlink:href="#DejaVuSans-20" x="966.357422"/>
     <use xlink:href="#DejaVuSans-70" x="998.144531"/>
     <use xlink:href="#DejaVuSans-6f" x="1061.621094"/>
     <use xlink:href="#DejaVuSans-73" x="1122.802734"/>
     <use xlink:href="#DejaVuSans-69" x="1174.902344"/>
     <use xlink:href="#DejaVuSans-74" x="1202.685547"/>
     <use xlink:href="#DejaVuSans-69" x="1241.894531"/>
     <use xlink:href="#DejaVuSans-76" x="1269.677734"/>
     <use xlink:href="#DejaVuSans-65" x="1328.857422"/>
     <use xlink:href="#DejaVuSans-20" x="1390.380859"/>
     <use xlink:href="#DejaVuSans-73" x="1422.167969"/>
     <use xlink:href="#DejaVuSans-61" x="1474.267578"/>
     <use xlink:href="#DejaVuSans-6d" x="1535.546875"/>
     <use xlink:href="#DejaVuSans-70" x="1632.958984"/>
     <use xlink:href="#DejaVuSans-6c" x="1696.435547"/>
     <use xlink:href="#DejaVuSans-65" x="1724.21875"/>
    </g>
   </g>
   <g id="legend_2">
    <g id="patch_13">
     <path d="M 480.4375 139.26875 
L 641 139.26875 
Q 643 139.26875 643 137.26875 
L 643 50.2 
Q 643 48.2 641 48.2 
L 480.4375 48.2 
Q 478.4375 48.2 478.4375 50.2 
L 478.4375 137.26875 
Q 478.4375 139.26875 480.4375 139.26875 
z
" style="fill: #ffffff; opacity: 0.8; stroke: #cccccc; stroke-linejoin: miter"/>
    </g>
    <g id="line2d_49">
     <path d="M 482.4375 56.298437 
L 492.4375 56.298437 
L 502.4375 56.298437 
" style="fill: none; stroke: #ff0000; stroke-width: 1.5; stroke-linecap: square"/>
    </g>
    <g id="text_43">
     <!-- γ = 0 -->
     <g transform="translate(510.4375 59.798437) scale(0.1 -0.1)">
      <use xlink:href="#DejaVuSans-3b3"/>
      <use xlink:href="#DejaVuSans-20" x="59.179688"/>
      <use xlink:href="#DejaVuSans-3d" x="90.966797"/>
      <use xlink:href="#DejaVuSans-20" x="174.755859"/>
      <use xlink:href="#DejaVuSans-30" x="206.542969"/>
     </g>
    </g>
    <g id="line2d_50">
     <path d="M 482.4375 70.976562 
L 492.4375 70.976562 
L 502.4375 70.976562 
" style="fill: none; stroke: #800080; stroke-width: 1.5; stroke-linecap: square"/>
    </g>
    <g id="text_44">
     <!-- γ = 0.5 -->
     <g transform="translate(510.4375 74.476562) scale(0.1 -0.1)">
      <use xlink:href="#DejaVuSans-3b3"/>
      <use xlink:href="#DejaVuSans-20" x="59.179688"/>
      <use xlink:href="#DejaVuSans-3d" x="90.966797"/>
      <use xlink:href="#DejaVuSans-20" x="174.755859"/>
      <use xlink:href="#DejaVuSans-30" x="206.542969"/>
      <use xlink:href="#DejaVuSans-2e" x="270.166016"/>
      <use xlink:href="#DejaVuSans-35" x="301.953125"/>
     </g>
    </g>
    <g id="line2d_51">
     <path d="M 482.4375 85.654687 
L 492.4375 85.654687 
L 502.4375 85.654687 
" style="fill: none; stroke: #008000; stroke-width: 1.5; stroke-linecap: square"/>
    </g>
    <g id="text_45">
     <!-- γ = 1 -->
     <g transform="translate(510.4375 89.154687) scale(0.1 -0.1)">
      <use xlink:href="#DejaVuSans-3b3"/>
      <use xlink:href="#DejaVuSans-20" x="59.179688"/>
      <use xlink:href="#DejaVuSans-3d" x="90.966797"/>
      <use xlink:href="#DejaVuSans-20" x="174.755859"/>
      <use xlink:href="#DejaVuSans-31" x="206.542969"/>
     </g>
    </g>
    <g id="line2d_52">
     <path d="M 482.4375 100.332812 
L 492.4375 100.332812 
L 502.4375 100.332812 
" style="fill: none; stroke: #0000ff; stroke-width: 1.5; stroke-linecap: square"/>
    </g>
    <g id="text_46">
     <!-- γ = 2 -->
     <g transform="translate(510.4375 103.832812) scale(0.1 -0.1)">
      <use xlink:href="#DejaVuSans-3b3"/>
      <use xlink:href="#DejaVuSans-20" x="59.179688"/>
      <use xlink:href="#DejaVuSans-3d" x="90.966797"/>
      <use xlink:href="#DejaVuSans-20" x="174.755859"/>
      <use xlink:href="#DejaVuSans-32" x="206.542969"/>
     </g>
    </g>
    <g id="line2d_53">
     <path d="M 482.4375 115.010937 
L 492.4375 115.010937 
L 502.4375 115.010937 
" style="fill: none; stroke: #000000; stroke-width: 1.5; stroke-linecap: square"/>
    </g>
    <g id="text_47">
     <!-- γ = 5 -->
     <g transform="translate(510.4375 118.510937) scale(0.1 -0.1)">
      <use xlink:href="#DejaVuSans-3b3"/>
      <use xlink:href="#DejaVuSans-20" x="59.179688"/>
      <use xlink:href="#DejaVuSans-3d" x="90.966797"/>
      <use xlink:href="#DejaVuSans-20" x="174.755859"/>
      <use xlink:href="#DejaVuSans-35" x="206.542969"/>
     </g>
    </g>
    <g id="line2d_54">
     <path d="M 482.4375 129.689062 
L 492.4375 129.689062 
L 502.4375 129.689062 
" style="fill: none; stroke-dasharray: 5.55,2.4; stroke-dashoffset: 0; stroke: #808080; stroke-width: 1.5"/>
    </g>
    <g id="text_48">
     <!-- evidence of positive class -->
     <g transform="translate(510.4375 133.189062) scale(0.1 -0.1)">
      <use xlink:href="#DejaVuSans-65"/>
      <use xlink:href="#DejaVuSans-76" x="61.523438"/>
      <use xlink:href="#DejaVuSans-69" x="120.703125"/>
      <use xlink:href="#DejaVuSans-64" x="148.486328"/>
      <use xlink:href="#DejaVuSans-65" x="211.962891"/>
      <use xlink:href="#DejaVuSans-6e" x="273.486328"/>
      <use xlink:href="#DejaVuSans-63" x="336.865234"/>
      <use xlink:href="#DejaVuSans-65" x="391.845703"/>
      <use xlink:href="#DejaVuSans-20" x="453.369141"/>
      <use xlink:href="#DejaVuSans-6f" x="485.15625"/>
      <use xlink:href="#DejaVuSans-66" x="546.337891"/>
      <use xlink:href="#DejaVuSans-20" x="581.542969"/>
      <use xlink:href="#DejaVuSans-70" x="613.330078"/>
      <use xlink:href="#DejaVuSans-6f" x="676.806641"/>
      <use xlink:href="#DejaVuSans-73" x="737.988281"/>
      <use xlink:href="#DejaVuSans-69" x="790.087891"/>
      <use xlink:href="#DejaVuSans-74" x="817.871094"/>
      <use xlink:href="#DejaVuSans-69" x="857.080078"/>
      <use xlink:href="#DejaVuSans-76" x="884.863281"/>
      <use xlink:href="#DejaVuSans-65" x="944.042969"/>
      <use xlink:href="#DejaVuSans-20" x="1005.566406"/>
      <use xlink:href="#DejaVuSans-63" x="1037.353516"/>
      <use xlink:href="#DejaVuSans-6c" x="1092.333984"/>
      <use xlink:href="#DejaVuSans-61" x="1120.117188"/>
      <use xlink:href="#DejaVuSans-73" x="1181.396484"/>
      <use xlink:href="#DejaVuSans-73" x="1233.496094"/>
     </g>
    </g>
   </g>
  </g>
 </g>
 <defs>
  <clipPath id="p8e622baef1">
   <rect x="90" y="43.2" width="253.636364" height="277.2"/>
  </clipPath>
  <clipPath id="p05c25b4430">
   <rect x="394.363636" y="43.2" width="253.636364" height="277.2"/>
  </clipPath>
 </defs>
</svg>
